<svg xmlns="http://www.w3.org/2000/svg" viewBox="0 0 42.17 57.92"><defs><style>.cls-1{fill:#007aff;}</style></defs><title>Asset 2</title><g id="Layer_2" data-name="Layer 2"><g id="Layer_1-2" data-name="Layer 1"><g id="ALvgwl.tif"><path class="cls-1" d="M42.17,55.38c0,.2-.07.4-.12.6a2.64,2.64,0,0,1-2.44,1.94H2.86a2.63,2.63,0,0,1-2.67-1.7A3.21,3.21,0,0,1,0,55.15q0-18.3,0-36.6a2.64,2.64,0,0,1,2.77-2.77H13.15v2.63H2.66V55.27H39.5V18.42H29V15.78H39.41a2.63,2.63,0,0,1,2.67,2.06c0,.16.06.32.09.48Z"/><path class="cls-1" d="M22.39,4.54v31a1.32,1.32,0,1,1-2.63,0V4.46l-.27.26-5.35,5.35a1.23,1.23,0,0,1-1.31.38,1.31,1.31,0,0,1-.94-1,1.21,1.21,0,0,1,.34-1.14c.22-.24.45-.46.68-.69L20,.49A1.35,1.35,0,0,1,21.59.1,1.14,1.14,0,0,1,22,.35l7.88,7.88a1.27,1.27,0,0,1,.26,1.59,1.24,1.24,0,0,1-1.47.63A1.66,1.66,0,0,1,28,10c-1.77-1.75-3.53-3.52-5.29-5.28a2.14,2.14,0,0,1-.19-.26Z"/></g></g></g></svg>