<?xml version="1.0" standalone="no"?>
<!DOCTYPE svg PUBLIC "-//W3C//DTD SVG 20010904//EN"
 "http://www.w3.org/TR/2001/REC-SVG-20010904/DTD/svg10.dtd">
<svg version="1.0" xmlns="http://www.w3.org/2000/svg"
 width="700.000000pt" height="700.000000pt" viewBox="0 0 700.000000 700.000000"
 preserveAspectRatio="xMidYMid meet">
<metadata>
Created by potrace 1.11, written by Peter Selinger 2001-2013
</metadata>
<g transform="translate(0.000000,700.000000) scale(0.100000,-0.100000)"
fill="#000000" stroke="none">
<path d="M2352 6440 c1 -8 -2 -37 -6 -65 -4 -27 -10 -66 -12 -85 -3 -19 -7
-46 -10 -60 -2 -14 -6 -36 -9 -50 -3 -13 -7 -42 -10 -65 -6 -38 -20 -121 -30
-175 -34 -181 -49 -249 -54 -245 -4 2 -6 -8 -5 -23 2 -58 -64 -230 -103 -267
-54 -50 -311 -154 -533 -216 l-45 -12 35 -9 c42 -11 249 -76 270 -85 8 -3 17
-7 20 -8 38 -9 80 -29 80 -36 0 -6 4 -8 9 -5 14 9 132 -55 124 -67 -3 -6 -1
-7 6 -3 15 10 43 -13 34 -27 -3 -5 -1 -7 4 -4 11 7 33 -13 37 -35 2 -7 8 -26
15 -41 6 -16 9 -33 5 -38 -3 -5 -1 -9 3 -9 7 0 29 -58 37 -101 2 -8 6 -25 10
-39 4 -14 8 -36 10 -50 2 -14 6 -32 9 -40 12 -31 38 -193 33 -206 -3 -7 -1
-16 4 -19 7 -4 16 -49 35 -175 2 -19 7 -46 9 -60 10 -54 15 -80 21 -134 8 -60
24 -76 26 -26 1 17 2 33 3 38 2 4 6 34 11 67 9 61 11 69 15 83 1 4 2 11 1 16
-1 5 1 16 5 25 3 9 8 30 9 46 9 89 18 144 24 141 3 -2 6 8 7 22 0 32 11 98 26
162 5 25 12 56 14 69 3 14 8 29 11 34 3 6 7 26 9 45 2 20 9 39 15 43 6 4 8 12
5 18 -4 6 -4 11 1 11 4 0 9 12 10 27 0 15 6 29 12 31 6 2 8 8 5 13 -9 15 21
72 55 101 31 28 169 98 233 118 21 6 43 8 49 4 7 -4 9 -3 6 4 -7 11 80 45 93
37 5 -3 10 -1 12 3 1 5 43 20 92 34 l90 25 -38 13 c-20 6 -43 13 -49 14 -34 5
-255 80 -252 85 1 3 -7 7 -20 7 -33 2 -185 79 -218 110 -16 14 -26 32 -23 40
3 7 0 16 -6 20 -7 5 -8 2 -3 -6 5 -9 4 -11 -3 -6 -14 9 -35 83 -27 96 4 6 0
13 -8 16 -9 3 -14 16 -12 29 1 14 -1 22 -6 19 -10 -6 -23 61 -15 81 3 9 2 14
-3 11 -11 -7 -24 60 -15 76 5 7 3 8 -6 3 -10 -6 -12 -3 -8 13 4 12 3 22 -1 22
-10 0 -33 138 -26 151 4 5 1 9 -5 9 -8 0 -11 14 -8 39 2 22 0 37 -4 35 -5 -3
-8 1 -8 8 0 15 -17 132 -25 168 -5 26 -11 66 -21 145 -3 28 -10 57 -15 65 -8
13 -9 13 -7 0z"/>
<path d="M4609 6299 c0 -13 -2 -31 -4 -39 -1 -8 -8 -55 -14 -105 -20 -149 -21
-159 -27 -185 -3 -14 -8 -43 -10 -65 -3 -22 -7 -51 -9 -64 -2 -13 -7 -45 -10
-70 -4 -25 -10 -68 -15 -96 -5 -27 -12 -66 -15 -85 -3 -19 -10 -60 -15 -90 -5
-30 -12 -71 -15 -90 -23 -146 -99 -524 -136 -679 -16 -68 -31 -133 -34 -145
-2 -11 -16 -61 -31 -111 -14 -49 -28 -100 -31 -113 -3 -12 -9 -25 -14 -28 -5
-3 -9 -12 -9 -19 0 -17 -49 -128 -60 -135 -4 -3 -12 -15 -18 -27 -7 -12 -40
-41 -75 -65 -175 -123 -542 -262 -1104 -420 -47 -13 -60 -31 -20 -28 1 0 27
-7 57 -16 30 -9 60 -17 67 -18 7 -1 16 -5 19 -9 4 -4 16 -7 26 -7 13 0 17 -4
12 -12 -6 -10 -5 -10 8 -1 8 7 18 10 22 6 3 -4 13 -8 20 -9 12 -2 118 -36 156
-51 8 -3 20 -7 25 -7 6 -1 24 -6 40 -13 17 -6 43 -14 58 -17 15 -4 26 -10 23
-14 -2 -4 11 -8 29 -9 19 -1 44 -7 57 -14 13 -7 26 -14 31 -15 4 -1 9 -3 12
-4 7 -3 22 -7 36 -9 5 0 8 -5 5 -10 -4 -5 2 -7 13 -4 10 3 22 0 25 -6 4 -6 16
-11 27 -11 10 0 19 -4 19 -8 0 -5 7 -9 15 -9 18 0 98 -34 106 -46 3 -5 8 -8
10 -6 2 1 15 -1 28 -6 19 -6 21 -9 10 -17 -11 -8 -10 -9 4 -4 17 5 96 -29 108
-47 3 -5 10 -9 15 -10 5 -1 8 -6 6 -10 -1 -5 2 -6 8 -2 13 8 42 -20 32 -30 -4
-5 -2 -5 4 -2 26 15 135 -126 119 -153 -3 -5 -2 -10 4 -10 5 0 15 -17 22 -37
6 -21 14 -42 18 -48 3 -5 7 -14 8 -20 1 -5 10 -35 19 -65 39 -136 57 -207 79
-315 2 -11 4 -20 5 -20 1 0 4 -11 6 -24 2 -14 11 -51 19 -82 8 -31 16 -80 18
-107 1 -27 5 -48 8 -46 3 2 12 -29 19 -69 7 -40 14 -81 16 -92 2 -11 7 -36 10
-55 7 -35 10 -52 20 -100 7 -31 12 -61 20 -125 3 -27 8 -53 9 -56 4 -5 13 -65
19 -122 1 -15 6 -30 9 -34 12 -11 7 -24 -5 -17 -10 6 -10 4 -2 -7 12 -14 20
-50 29 -129 4 -25 10 -67 15 -95 11 -61 17 -103 25 -175 3 -30 8 -68 12 -85 3
-16 8 -52 13 -80 4 -27 8 -43 10 -35 1 8 3 24 5 35 3 11 6 37 7 57 2 21 5 38
8 38 3 0 5 12 4 27 -2 37 6 54 20 46 7 -5 7 -2 -1 8 -6 8 -10 24 -8 34 2 11 4
33 4 48 1 16 4 26 9 24 4 -3 7 16 8 41 1 26 4 65 8 87 5 22 9 45 9 50 1 6 7
13 12 17 6 5 5 8 -3 8 -7 0 -10 5 -7 11 4 6 9 32 12 57 3 26 8 49 11 52 4 3 8
30 10 60 1 30 6 57 10 60 4 3 7 15 6 28 -1 12 3 44 8 70 6 26 11 57 11 70 1
12 4 22 8 22 3 0 4 11 1 25 -2 15 0 25 8 25 7 0 9 8 5 21 -5 14 -2 25 6 30 12
7 12 9 0 9 -11 0 -11 3 0 17 8 9 13 18 12 20 -2 1 -3 4 -2 6 0 1 2 22 4 46 2
23 10 50 17 59 7 9 8 13 2 10 -7 -5 -6 12 2 50 7 31 13 57 14 57 1 0 3 14 5
30 9 66 16 95 25 90 5 -3 12 0 16 6 4 8 3 9 -4 5 -8 -5 -12 1 -12 18 0 14 4
27 9 31 6 3 8 14 6 25 -2 11 -1 20 4 20 4 0 7 10 8 23 1 12 4 33 7 47 3 14 11
48 17 77 7 29 15 50 19 48 4 -2 6 6 5 18 -1 12 0 27 4 32 3 6 6 17 7 25 3 35
17 80 25 80 5 0 8 3 8 8 -4 22 2 42 11 37 5 -3 7 0 4 8 -2 7 1 27 7 43 7 16
13 34 13 39 1 6 15 10 33 10 17 0 34 3 37 6 4 4 -5 5 -19 4 -14 -2 -27 1 -30
6 -8 12 34 91 45 84 5 -3 7 1 4 9 -3 9 3 19 17 27 12 6 33 22 46 35 24 25 39
32 28 14 -3 -6 1 -7 9 -4 9 3 14 10 13 16 -3 15 161 99 167 85 2 -7 5 -4 5 6
1 9 4 16 9 15 4 -1 17 3 30 10 12 7 22 10 22 7 0 -3 11 2 24 11 14 8 27 15 30
15 3 0 20 6 38 13 76 30 84 31 80 10 -2 -8 1 -14 6 -14 5 0 9 10 8 21 0 12 6
23 14 25 8 2 46 15 83 29 38 14 73 22 79 19 7 -5 8 -2 3 6 -6 10 -3 12 13 8
12 -4 22 -3 22 2 0 4 12 11 28 16 15 4 29 8 32 9 3 1 39 12 80 24 41 13 80 24
85 26 6 1 36 10 69 19 32 10 64 19 70 21 6 1 18 5 26 8 8 3 35 11 60 18 25 6
41 13 35 15 -5 2 -55 15 -110 29 -55 14 -140 39 -190 54 -49 16 -136 43 -192
61 -57 17 -103 36 -103 41 0 6 -4 8 -9 5 -12 -8 -131 34 -131 46 0 5 -4 7 -9
4 -17 -11 -265 99 -382 170 -60 36 -143 120 -133 135 3 5 0 9 -6 9 -6 0 -8 5
-5 10 3 6 1 10 -5 10 -6 0 -9 4 -6 9 4 5 2 11 -3 13 -12 4 -72 178 -65 189 3
5 0 9 -7 9 -6 0 -9 8 -6 20 3 11 2 20 -2 20 -4 0 -13 24 -21 53 -7 28 -15 58
-18 66 -4 10 -1 12 9 7 8 -4 6 -1 -3 7 -14 11 -15 16 -5 27 9 10 9 11 0 6 -9
-5 -13 1 -14 18 -3 47 -4 51 -12 57 -4 3 -9 26 -10 51 -1 25 -5 44 -9 41 -5
-2 -8 0 -8 5 0 5 -9 53 -21 108 -11 54 -22 110 -24 124 -2 14 -8 44 -13 67 -7
29 -6 45 2 54 8 9 8 10 -3 4 -11 -6 -13 -3 -9 13 4 12 2 20 -3 16 -5 -3 -9 5
-10 18 -1 24 -3 39 -20 128 -5 30 -12 71 -15 90 -2 19 -6 42 -9 50 -4 14 -15
90 -20 135 -1 11 -5 27 -8 35 -3 8 -5 22 -5 30 0 8 -2 29 -5 45 -13 71 -20
122 -21 157 -1 20 -4 34 -7 32 -5 -3 -10 28 -24 157 -1 8 -5 31 -9 50 -3 19
-9 54 -12 79 -9 73 -13 92 -19 98 -3 3 -5 -6 -6 -19z"/>
<path d="M2473 5935 c0 -8 4 -12 9 -9 5 3 6 10 3 15 -9 13 -12 11 -12 -6z"/>
<path d="M2495 5840 c3 -5 8 -10 11 -10 2 0 4 5 4 10 0 6 -5 10 -11 10 -5 0
-7 -4 -4 -10z"/>
<path d="M2506 5738 c3 -5 10 -6 15 -3 13 9 11 12 -6 12 -8 0 -12 -4 -9 -9z"/>
<path d="M2527 5679 c7 -7 15 -10 18 -7 3 3 -2 9 -12 12 -14 6 -15 5 -6 -5z"/>
<path d="M2579 5528 c-5 -18 -6 -38 -1 -34 7 8 12 36 6 36 -2 0 -4 -1 -5 -2z"/>
<path d="M4875 5180 c3 -5 8 -10 11 -10 2 0 4 5 4 10 0 6 -5 10 -11 10 -5 0
-7 -4 -4 -10z"/>
<path d="M2940 5086 c0 -2 8 -10 18 -17 15 -13 16 -12 3 4 -13 16 -21 21 -21
13z"/>
<path d="M2806 5042 c-3 -5 1 -9 9 -9 8 0 12 4 9 9 -3 4 -7 8 -9 8 -2 0 -6 -4
-9 -8z"/>
<path d="M2996 5035 c-9 -26 -7 -32 5 -12 6 10 9 21 6 23 -2 3 -7 -2 -11 -11z"/>
<path d="M2006 4978 c3 -5 10 -6 15 -3 13 9 11 12 -6 12 -8 0 -12 -4 -9 -9z"/>
<path d="M2750 4979 c0 -5 5 -7 10 -4 6 3 10 8 10 11 0 2 -4 4 -10 4 -5 0 -10
-5 -10 -11z"/>
<path d="M2850 4980 c0 -5 5 -10 11 -10 5 0 7 5 4 10 -3 6 -8 10 -11 10 -2 0
-4 -4 -4 -10z"/>
<path d="M2667 4939 c7 -7 15 -10 18 -7 3 3 -2 9 -12 12 -14 6 -15 5 -6 -5z"/>
<path d="M2630 4921 c0 -6 4 -13 10 -16 6 -3 7 1 4 9 -7 18 -14 21 -14 7z"/>
<path d="M2836 4918 c3 -5 10 -6 15 -3 13 9 11 12 -6 12 -8 0 -12 -4 -9 -9z"/>
<path d="M2586 4902 c-3 -5 1 -9 9 -9 8 0 15 4 15 9 0 4 -4 8 -9 8 -6 0 -12
-4 -15 -8z"/>
<path d="M2693 4863 c4 -3 1 -13 -6 -22 -11 -14 -10 -14 5 -2 16 12 16 31 1
31 -4 0 -3 -3 0 -7z"/>
<path d="M2570 4841 c0 -6 4 -12 8 -15 5 -3 9 1 9 9 0 8 -4 15 -9 15 -4 0 -8
-4 -8 -9z"/>
<path d="M2640 4760 c-9 -6 -10 -10 -3 -10 6 0 15 5 18 10 8 12 4 12 -15 0z"/>
<path d="M2553 4735 c0 -8 4 -12 9 -9 5 3 6 10 3 15 -9 13 -12 11 -12 -6z"/>
<path d="M2555 4700 c-3 -5 -1 -10 4 -10 6 0 11 5 11 10 0 6 -2 10 -4 10 -3 0
-8 -4 -11 -10z"/>
<path d="M2526 4662 c-3 -5 1 -9 9 -9 8 0 12 4 9 9 -3 4 -7 8 -9 8 -2 0 -6 -4
-9 -8z"/>
<path d="M2535 4620 c-3 -5 -1 -10 4 -10 6 0 11 5 11 10 0 6 -2 10 -4 10 -3 0
-8 -4 -11 -10z"/>
<path d="M2533 4529 c-2 -23 3 -25 10 -4 4 8 3 16 -1 19 -4 3 -9 -4 -9 -15z"/>
<path d="M2470 4456 c0 -2 8 -10 18 -17 15 -13 16 -12 3 4 -13 16 -21 21 -21
13z"/>
<path d="M2446 4342 c-3 -5 1 -9 9 -9 8 0 12 4 9 9 -3 4 -7 8 -9 8 -2 0 -6 -4
-9 -8z"/>
<path d="M2496 4338 c3 -5 10 -6 15 -3 13 9 11 12 -6 12 -8 0 -12 -4 -9 -9z"/>
<path d="M2460 4280 c-9 -6 -10 -10 -3 -10 6 0 15 5 18 10 8 12 4 12 -15 0z"/>
<path d="M6090 3540 c0 -5 5 -10 11 -10 5 0 7 5 4 10 -3 6 -8 10 -11 10 -2 0
-4 -4 -4 -10z"/>
<path d="M5955 3519 c-3 -4 2 -6 10 -5 21 3 28 13 10 13 -9 0 -18 -4 -20 -8z"/>
<path d="M3230 3481 c0 -6 4 -13 10 -16 6 -3 7 1 4 9 -7 18 -14 21 -14 7z"/>
<path d="M5859 3473 c-13 -16 -12 -17 4 -4 16 13 21 21 13 21 -2 0 -10 -8 -17
-17z"/>
<path d="M5896 3482 c-3 -5 1 -9 9 -9 8 0 12 4 9 9 -3 4 -7 8 -9 8 -2 0 -6 -4
-9 -8z"/>
<path d="M3330 3460 c0 -5 5 -10 11 -10 5 0 7 5 4 10 -3 6 -8 10 -11 10 -2 0
-4 -4 -4 -10z"/>
<path d="M3415 3460 c3 -5 8 -10 11 -10 2 0 4 5 4 10 0 6 -5 10 -11 10 -5 0
-7 -4 -4 -10z"/>
<path d="M6096 3462 c-3 -4 4 -9 15 -9 23 -2 25 3 4 10 -8 4 -16 3 -19 -1z"/>
<path d="M5709 3443 c-13 -16 -12 -17 4 -4 16 13 21 21 13 21 -2 0 -10 -8 -17
-17z"/>
<path d="M3516 3438 c3 -5 10 -6 15 -3 13 9 11 12 -6 12 -8 0 -12 -4 -9 -9z"/>
<path d="M5860 3445 c0 -2 6 -8 13 -14 10 -8 14 -7 14 2 0 8 -6 14 -14 14 -7
0 -13 -1 -13 -2z"/>
<path d="M6027 3439 c7 -7 15 -10 18 -7 3 3 -2 9 -12 12 -14 6 -15 5 -6 -5z"/>
<path d="M5675 3429 c-4 -6 -5 -12 -2 -15 2 -3 7 2 10 11 7 17 1 20 -8 4z"/>
<path d="M5935 3431 c-3 -5 -2 -12 3 -15 5 -3 9 1 9 9 0 17 -3 19 -12 6z"/>
<path d="M5770 3399 c0 -5 5 -7 10 -4 6 3 10 8 10 11 0 2 -4 4 -10 4 -5 0 -10
-5 -10 -11z"/>
<path d="M5980 3406 c0 -2 8 -10 18 -17 15 -13 16 -12 3 4 -13 16 -21 21 -21
13z"/>
<path d="M3675 3369 c-4 -6 -5 -12 -2 -15 2 -3 7 2 10 11 7 17 1 20 -8 4z"/>
<path d="M3270 3366 c0 -2 7 -7 16 -10 8 -3 12 -2 9 4 -6 10 -25 14 -25 6z"/>
<path d="M3479 3353 c-13 -17 -13 -17 6 -3 11 8 22 16 24 17 2 2 0 3 -6 3 -6
0 -17 -8 -24 -17z"/>
<path d="M5536 3362 c-3 -5 1 -9 9 -9 8 0 12 4 9 9 -3 4 -7 8 -9 8 -2 0 -6 -4
-9 -8z"/>
<path d="M5590 3366 c0 -2 7 -7 16 -10 8 -3 12 -2 9 4 -6 10 -25 14 -25 6z"/>
<path d="M5630 3360 c0 -5 5 -10 11 -10 5 0 7 5 4 10 -3 6 -8 10 -11 10 -2 0
-4 -4 -4 -10z"/>
<path d="M5664 3362 c4 -3 14 -7 22 -8 9 -1 13 0 10 4 -4 3 -14 7 -22 8 -9 1
-13 0 -10 -4z"/>
<path d="M3773 3345 c0 -8 4 -12 9 -9 5 3 6 10 3 15 -9 13 -12 11 -12 -6z"/>
<path d="M3714 3302 c4 -3 14 -7 22 -8 9 -1 13 0 10 4 -4 3 -14 7 -22 8 -9 1
-13 0 -10 -4z"/>
<path d="M5403 3298 c-11 -19 -13 -39 -1 -32 5 3 7 9 4 12 -3 3 -1 11 5 19 6
7 9 13 6 13 -3 0 -9 -6 -14 -12z"/>
<path d="M5530 3299 c0 -5 5 -7 10 -4 6 3 10 8 10 11 0 2 -4 4 -10 4 -5 0 -10
-5 -10 -11z"/>
<path d="M5570 3299 c0 -5 5 -7 10 -4 6 3 10 8 10 11 0 2 -4 4 -10 4 -5 0 -10
-5 -10 -11z"/>
<path d="M5675 3300 c-3 -5 -1 -10 4 -10 6 0 11 5 11 10 0 6 -2 10 -4 10 -3 0
-8 -4 -11 -10z"/>
<path d="M3796 3278 c3 -5 10 -6 15 -3 13 9 11 12 -6 12 -8 0 -12 -4 -9 -9z"/>
<path d="M5306 3280 c5 -8 9 -18 9 -22 0 -3 3 -9 7 -13 3 -4 5 0 4 9 -1 9 -8
22 -16 29 -10 10 -11 9 -4 -3z"/>
<path d="M3835 3259 c-3 -4 2 -6 10 -5 21 3 28 13 10 13 -9 0 -18 -4 -20 -8z"/>
<path d="M3896 3262 c-3 -5 1 -9 9 -9 8 0 12 4 9 9 -3 4 -7 8 -9 8 -2 0 -6 -4
-9 -8z"/>
<path d="M5266 3262 c-3 -5 1 -9 9 -9 8 0 15 4 15 9 0 4 -4 8 -9 8 -6 0 -12
-4 -15 -8z"/>
<path d="M5450 3259 c0 -5 5 -7 10 -4 6 3 10 8 10 11 0 2 -4 4 -10 4 -5 0 -10
-5 -10 -11z"/>
<path d="M5220 3226 c0 -2 8 -10 18 -17 15 -13 16 -12 3 4 -13 16 -21 21 -21
13z"/>
<path d="M5135 3159 c-3 -4 2 -6 10 -5 21 3 28 13 10 13 -9 0 -18 -4 -20 -8z"/>
<path d="M5286 3162 c-3 -5 1 -9 9 -9 8 0 12 4 9 9 -3 4 -7 8 -9 8 -2 0 -6 -4
-9 -8z"/>
<path d="M4070 3140 c0 -5 5 -10 11 -10 5 0 7 5 4 10 -3 6 -8 10 -11 10 -2 0
-4 -4 -4 -10z"/>
<path d="M5210 3140 c0 -5 5 -10 11 -10 5 0 7 5 4 10 -3 6 -8 10 -11 10 -2 0
-4 -4 -4 -10z"/>
<path d="M5075 3101 c-3 -5 -2 -12 3 -15 5 -3 9 1 9 9 0 17 -3 19 -12 6z"/>
<path d="M5190 2936 c0 -2 8 -10 18 -17 15 -13 16 -12 3 4 -13 16 -21 21 -21
13z"/>
<path d="M5019 2808 c-5 -18 -6 -38 -1 -34 7 8 12 36 6 36 -2 0 -4 -1 -5 -2z"/>
<path d="M5035 2720 c3 -5 8 -10 11 -10 2 0 4 5 4 10 0 6 -5 10 -11 10 -5 0
-7 -4 -4 -10z"/>
<path d="M4966 2702 c-3 -5 1 -9 9 -9 8 0 12 4 9 9 -3 4 -7 8 -9 8 -2 0 -6 -4
-9 -8z"/>
<path d="M2927 2680 c-7 -28 -27 -148 -34 -200 -2 -19 -7 -42 -10 -50 -3 -8
-6 -28 -8 -45 -3 -38 -21 -140 -25 -140 -1 0 -3 -16 -6 -35 -7 -54 -43 -181
-64 -225 -12 -25 -35 -49 -62 -66 -47 -28 -189 -84 -311 -121 l-77 -24 92 -29
c51 -16 95 -29 98 -30 30 -7 78 -30 75 -36 -3 -4 1 -7 8 -6 35 1 55 -5 73 -20
11 -10 26 -19 34 -21 8 -2 17 -8 18 -13 2 -5 10 -9 17 -9 16 0 58 -87 51 -106
-3 -8 -1 -14 4 -14 4 0 12 -15 16 -32 4 -18 9 -37 10 -43 14 -58 44 -196 43
-202 -1 -5 0 -10 1 -13 5 -13 16 -74 25 -135 3 -23 7 -50 9 -60 2 -11 7 -40
10 -65 8 -62 15 -92 20 -97 3 -3 5 3 4 13 -1 36 19 160 29 177 3 5 6 32 8 60
2 29 10 82 18 120 8 37 12 67 9 67 -3 0 3 7 14 16 10 8 13 13 7 9 -15 -7 -18
11 -3 20 6 4 8 10 5 15 -10 15 6 60 19 53 7 -4 7 -2 -1 7 -8 9 -9 19 -2 32 5
10 7 18 4 18 -3 0 1 13 9 29 9 16 12 32 8 36 -4 5 2 5 13 1 16 -6 18 -5 8 5
-15 15 -17 33 -3 24 5 -3 7 0 4 9 -7 17 61 90 76 81 5 -3 10 -2 10 3 0 11 69
44 80 37 4 -3 10 0 12 6 2 6 15 12 30 12 14 1 24 5 22 8 -3 6 96 36 109 31 4
-1 7 3 7 8 0 6 10 10 23 10 12 1 35 6 51 13 28 12 28 13 -50 37 -44 13 -81 25
-84 25 -28 3 -138 51 -133 58 3 6 1 7 -5 3 -13 -8 -61 15 -109 50 -32 24 -71
109 -75 162 -1 15 -6 30 -11 33 -5 3 -10 24 -11 45 -1 22 -5 44 -8 49 -3 6 -9
28 -12 50 -4 22 -9 49 -13 60 -3 11 -7 27 -8 35 0 8 -5 38 -9 65 -4 28 -9 61
-11 75 -2 14 -6 33 -10 43 -5 11 -2 17 6 17 10 0 11 2 2 8 -6 4 -16 34 -21 67
-7 46 -10 54 -15 35z"/>
<path d="M4936 2682 c-3 -5 1 -9 9 -9 8 0 12 4 9 9 -3 4 -7 8 -9 8 -2 0 -6 -4
-9 -8z"/>
<path d="M4915 2411 c-3 -5 -2 -12 3 -15 5 -3 9 1 9 9 0 17 -3 19 -12 6z"/>
<path d="M4866 2398 c3 -5 10 -6 15 -3 13 9 11 12 -6 12 -8 0 -12 -4 -9 -9z"/>
<path d="M4846 2138 c3 -5 10 -6 15 -3 13 9 11 12 -6 12 -8 0 -12 -4 -9 -9z"/>
<path d="M4850 2080 c0 -5 5 -10 11 -10 5 0 7 5 4 10 -3 6 -8 10 -11 10 -2 0
-4 -4 -4 -10z"/>
<path d="M3096 2022 c-3 -4 4 -9 15 -9 23 -2 25 3 4 10 -8 4 -16 3 -19 -1z"/>
<path d="M4806 1978 c3 -5 10 -6 15 -3 13 9 11 12 -6 12 -8 0 -12 -4 -9 -9z"/>
<path d="M4815 1951 c-3 -5 -2 -12 3 -15 5 -3 9 1 9 9 0 17 -3 19 -12 6z"/>
<path d="M4816 1842 c-3 -5 1 -9 9 -9 8 0 12 4 9 9 -3 4 -7 8 -9 8 -2 0 -6 -4
-9 -8z"/>
<path d="M4796 1678 c3 -5 10 -6 15 -3 13 9 11 12 -6 12 -8 0 -12 -4 -9 -9z"/>
<path d="M3290 1659 c0 -5 5 -7 10 -4 6 3 10 8 10 11 0 2 -4 4 -10 4 -5 0 -10
-5 -10 -11z"/>
<path d="M4730 1659 c0 -5 5 -7 10 -4 6 3 10 8 10 11 0 2 -4 4 -10 4 -5 0 -10
-5 -10 -11z"/>
<path d="M3131 1607 c-8 -10 -7 -14 2 -14 8 0 14 6 14 14 0 7 -1 13 -2 13 -2
0 -8 -6 -14 -13z"/>
<path d="M3279 1618 c-5 -18 -6 -38 -1 -34 7 8 12 36 6 36 -2 0 -4 -1 -5 -2z"/>
<path d="M4756 1598 c3 -5 10 -6 15 -3 13 9 11 12 -6 12 -8 0 -12 -4 -9 -9z"/>
<path d="M3215 1580 c-3 -5 -1 -10 4 -10 6 0 11 5 11 10 0 6 -2 10 -4 10 -3 0
-8 -4 -11 -10z"/>
<path d="M3107 1539 c7 -7 15 -10 18 -7 3 3 -2 9 -12 12 -14 6 -15 5 -6 -5z"/>
<path d="M4735 1540 c3 -5 8 -10 11 -10 2 0 4 5 4 10 0 6 -5 10 -11 10 -5 0
-7 -4 -4 -10z"/>
<path d="M3110 1499 c0 -5 5 -7 10 -4 6 3 10 8 10 11 0 2 -4 4 -10 4 -5 0 -10
-5 -10 -11z"/>
<path d="M3176 1502 c-3 -5 1 -9 9 -9 8 0 12 4 9 9 -3 4 -7 8 -9 8 -2 0 -6 -4
-9 -8z"/>
<path d="M3067 1419 c7 -7 15 -10 18 -7 3 3 -2 9 -12 12 -14 6 -15 5 -6 -5z"/>
<path d="M4699 1388 c-5 -18 -6 -38 -1 -34 7 8 12 36 6 36 -2 0 -4 -1 -5 -2z"/>
<path d="M3039 1233 c-13 -16 -12 -17 4 -4 9 7 17 15 17 17 0 8 -8 3 -21 -13z"/>
</g>
</svg>
